<svg xmlns="http://www.w3.org/2000/svg" xmlns:xlink="http://www.w3.org/1999/xlink" viewBox="0 0 1380.77 1320.59"><defs><style>.cls-1{fill:#c7f7f9;}.cls-2{fill:none;clip-path:url(#clip-path);}.cls-3{clip-path:url(#clip-path-2);}.cls-4{fill:#246a7c;}.cls-5{fill:#f9b384;}.cls-11,.cls-6{fill:#e28b6d;}.cls-6{opacity:0.6;}.cls-7{fill:#01435a;}.cls-8{fill:#11343d;}.cls-15,.cls-9{fill:#ee6f57;}.cls-9{opacity:0.3;}.cls-10{fill:#102048;}.cls-12{fill:#fff;}.cls-13{fill:#ae5140;}.cls-14{fill:#6f3428;}.cls-15{opacity:0.2;}.cls-16{fill:#8bf2f2;}.cls-17{fill:#d3dfff;}</style><clipPath id="clip-path"><circle class="cls-1" cx="653.81" cy="653.81" r="653.81"/></clipPath><clipPath id="clip-path-2" transform="translate(30.53)"><circle class="cls-2" cx="653.81" cy="653.81" r="653.81"/></clipPath></defs><g id="Layer_2" data-name="Layer 2"><g id="Layer_1-2" data-name="Layer 1"><circle class="cls-1" cx="684.34" cy="653.81" r="653.81"/><g class="cls-3"><path class="cls-4" d="M1350.23,1062.9s-77.65,54.76-166.85,7.31l83.43-46.55Z" transform="translate(30.53)"/><path class="cls-4" d="M778.51,696.9S703,838.59,726.61,880.45l86-47.76Z" transform="translate(30.53)"/><path class="cls-5" d="M746,840.75a265.79,265.79,0,0,1-27.31-23.65C701.46,800,685.61,780.2,671.16,759v0c-9.7-14.2-18.76-29-27.16-44-24.28-43.29-43.26-88.1-56.76-124-14.09-37.42-22.28-65.19-24.45-71.55a7.8,7.8,0,0,0-.53-1.33l40.87-117.34c19.75-31.63,30.82,71,30.82,71,5.44-3.2,12-12.58,15.95-17.64,4.39-5.73,7.77,3.34,8.37,6.57,3.4,18.87-11.78,54.75-11.78,54.75l97.45,142.82a198,198,0,0,0,19.89,24.63,190.2,190.2,0,0,0,14.69,14C787.17,733.63,786.29,804.44,746,840.75Z" transform="translate(30.53)"/><path class="cls-6" d="M746,840.75a265.79,265.79,0,0,1-27.31-23.65c30.59-35,54-93.24,59.85-120.19,4.64,4.92-5.13-4.39,0,0C787.17,733.63,786.29,804.44,746,840.75Z" transform="translate(30.53)"/><path class="cls-7" d="M1350.25,1062.91c-53.24-10.36-95.2-9.7-130.63-2.67a260.65,260.65,0,0,0-36.23,10l-10.72,38.41-21.15,75.94-13.74,49.34-12.51,44.81-7,25.27H740.6l59.74-389.52-73.72-34a157.84,157.84,0,0,0,13.14-24.32c22.39-50.43,34.4-126.86,38.76-159.23a193.48,193.48,0,0,0,73,39.43c32.15,9.17,70.91,17.11,107.18,16.27l3.72-.11c83.89-3.26,121.31,22.21,121.31,22.21,19,3.76,68.46,22.78,111.65,41.79,19,8.33,36.86,16.69,50.36,23.72a142.54,142.54,0,0,1,72.36,92.35Z" transform="translate(30.53)"/><path class="cls-8" d="M1219.62,1060.24a260.65,260.65,0,0,0-36.23,10l22.74-81.56Z" transform="translate(30.53)"/><path class="cls-9" d="M671.16,759c-9.7-14.2-17.3-27-35.53-59.38C664.23,689.84,681.32,732,671.16,759Z" transform="translate(30.53)"/><path class="cls-8" d="M1176.78,1093.93l-25.26,90.64-13.74,49.34L798.9,1259.74l-38.51-67.4C1008.14,1187.24,1111.81,1151.93,1176.78,1093.93Z" transform="translate(30.53)"/><path class="cls-6" d="M587.24,591c-14.09-37.42-22.28-65.19-24.45-71.55l63.4-39.27C628.62,515.91,600.35,566.85,587.24,591Z" transform="translate(30.53)"/><path class="cls-8" d="M988.26,840.44a64.69,64.69,0,0,0,22.09,32.94,81.78,81.78,0,0,0,36.25,16.08,91.4,91.4,0,0,0,39.85-1.71,86.27,86.27,0,0,0,18.79-7.39,100.18,100.18,0,0,0,17-11.26l1.88,2a86.59,86.59,0,0,1-16.48,13.51,91,91,0,0,1-19.51,9,88.18,88.18,0,0,1-42.83,2.7c-14.2-2.64-27.95-8.74-38.82-18.42a67.8,67.8,0,0,1-13.79-16.68A60.07,60.07,0,0,1,985.57,841Z" transform="translate(30.53)"/><path class="cls-5" d="M1142.28,706.19l-10.51,82.12a60.28,60.28,0,0,1-120.08-7.52,61.82,61.82,0,0,1,.74-9.52l1.89-12,7.42-46.84,41.75-2.15Z" transform="translate(30.53)"/><path class="cls-10" d="M996.06,570.88c1.17-12.11,6.83-26.54,13.29-39.62a84.7,84.7,0,0,1,63.82-46.36c41.46-6,95.07-.15,124.27,39.67,32.91,44.9,5.56,134.67-29.73,142.32S996.06,570.88,996.06,570.88Z" transform="translate(30.53)"/><path class="cls-11" d="M1104.15,727.27c-14.1,13.36-46.57,44.6-91.72,44l9.31-58.86,41.75-2.15Z" transform="translate(30.53)"/><path class="cls-5" d="M1164.24,592.05,1158,624.76l-1.55,8L1150.22,665l-3.55,18.45-4.39,22.77-21.48,12.89a94.82,94.82,0,0,1-16.65,8.19,0,0,0,0,1,0,0c-16.27,6.46-43.72,13.63-78.93,9a32.77,32.77,0,0,1-7-1.65c-16.58-5.66-25.09-23.12-28.81-44.87-2.74-16-2.95-34.3-1.93-52,1.58-27.73,6.18-53.91,8.57-66.91,36.93-33,87.36-39,124.75-46.32Z" transform="translate(30.53)"/><path class="cls-10" d="M996.06,570.88c58.83-46.31,138.09.61,138.09.61s-12.12,72.93,11.31,66.91,47.2-54.78,47.2-54.78L1139,506.31l-117.3,20.2Z" transform="translate(30.53)"/><path class="cls-5" d="M1142.42,640.79c11.53-20.24,34-26.73,46-11.38s12.53,63.66-46.79,53.23Z" transform="translate(30.53)"/><path class="cls-11" d="M1043.79,624.81c-3.81,10.32-9.72,19.51-13.58,29.17-.44,1.18-1,2.52-1.29,3.55a5.72,5.72,0,0,0-.31,2.77,3.37,3.37,0,0,0,1.07,2.06,9.41,9.41,0,0,0,2.7,1.6c4.42,1.7,9.9,2.11,15.24,2.65l.05,2.06c-5.4.71-11,1.35-16.85-.35a12.55,12.55,0,0,1-4.37-2.24,8.33,8.33,0,0,1-2.89-4.81,10.91,10.91,0,0,1,.34-5.2,31,31,0,0,1,1.46-4.06c4.32-10.38,10.75-19.13,16.59-28.12Z" transform="translate(30.53)"/><path class="cls-10" d="M1083.24,627c-1.44,4.87-5.41,8-8.86,7s-5.09-5.79-3.65-10.66,5.4-8,8.86-7S1084.68,622.11,1083.24,627Z" transform="translate(30.53)"/><ellipse class="cls-10" cx="1014.49" cy="622.17" rx="9.19" ry="6.52" transform="translate(160.63 1418.5) rotate(-73.52)"/><path class="cls-10" d="M1061.25,608.21a32.7,32.7,0,0,1,10.44-6.73,25.46,25.46,0,0,1,24.76,3.06,32.26,32.26,0,0,1,8.47,9.1l-1.55,1.36a73.79,73.79,0,0,0-9.4-6.55,28.44,28.44,0,0,0-10.15-3.48,28.1,28.1,0,0,0-10.71.78,61.76,61.76,0,0,0-10.68,4.15Z" transform="translate(30.53)"/><path class="cls-10" d="M1030.28,608.49a14.27,14.27,0,0,0-12.35-6.74,17.77,17.77,0,0,0-7.11,1.58,38,38,0,0,0-6.82,4.15l-1.61-1.29a17.74,17.74,0,0,1,6.21-6.92,16.81,16.81,0,0,1,9.34-2.77,15.71,15.71,0,0,1,9.36,3.14,12.39,12.39,0,0,1,4.94,8.21Z" transform="translate(30.53)"/><path class="cls-12" d="M1021.39,683.87l38.24.8s-21.2,28.76-36.77,2Z" transform="translate(30.53)"/><path class="cls-11" d="M1151.59,656.23a28.9,28.9,0,0,1,1.78-9.82,21.54,21.54,0,0,1,5.79-8.75,14.86,14.86,0,0,1,10.33-3.83,15.41,15.41,0,0,1,9.6,4l-1,1.78a21.42,21.42,0,0,0-8.48-1.18,12.9,12.9,0,0,0-7,3.15,24.09,24.09,0,0,0-5.14,6.67,91.78,91.78,0,0,0-3.86,8.34Z" transform="translate(30.53)"/><circle class="cls-9" cx="1134.45" cy="667.69" r="26.94"/><path class="cls-9" d="M1008.31,664.05a27,27,0,0,1-18.9,25.73c-2.74-16-2.95-34.3-1.93-52A27,27,0,0,1,1008.31,664.05Z" transform="translate(30.53)"/><path class="cls-10" d="M466.29,552s76.7,37.54,62.48,99.83L478,666Z" transform="translate(30.53)"/><path class="cls-5" d="M466.29,552c8.23-8.1,50.44-54.75,49-113-1.12-44.2,18.48-24.23,21,6.27,0,0,10.78-62.39,40.5-56.06L568,401.08s11.27-21.12,20.37-15.47.85,23.73.85,23.73,4.25-15.67,12-16.87,15,23.36-2.49,87.44c0,0,18.89-18.73,26.36-21.89s7,45.85-46,98-90.41,92.53-90.41,92.53Z" transform="translate(30.53)"/><path class="cls-7" d="M157.24,807.54C159.1,810.41,466.29,552,466.29,552l62.48,99.83L215.22,1021Z" transform="translate(30.53)"/><path class="cls-11" d="M577.3,389.55c-3.66,5.64-7,11.51-10.16,17.47a193.94,193.94,0,0,0-8.4,18.33,151.32,151.32,0,0,0-6.35,19.08l-1.26,4.88-1,4.94c-.83,3.28-1,6.64-1.64,10l-1.37-.07a97,97,0,0,1,2.26-20.43,124.63,124.63,0,0,1,6.1-19.66,150.94,150.94,0,0,1,9-18.47,121.3,121.3,0,0,1,11.67-16.88Z" transform="translate(30.53)"/><path class="cls-11" d="M589.91,409.51c-1,5.57-2.23,11.1-3.46,16.62s-2.61,11-3.88,16.5l-4.18,16.42c-1.47,5.46-2.94,10.91-4.57,16.34l-1.35-.29c.73-5.63,1.81-11.2,2.93-16.75s2.46-11.05,3.79-16.55,2.79-11,4.38-16.4,3.17-10.87,5-16.24Z" transform="translate(30.53)"/><path class="cls-11" d="M608.54,395a230.5,230.5,0,0,1-1.71,57.72c-.78,4.77-1.61,9.54-2.76,14.25-.54,2.36-1.13,4.71-1.8,7l-.49,1.75-.22.82a.54.54,0,0,0-.07-.41.58.58,0,0,0-.8-.16l1.23-1.09q5.42-4.79,10.92-9.45l5.59-4.61c1-.78,1.81-1.45,3-2.3a4.4,4.4,0,0,1,6.79,2.94l.35,1.87c.13,1.25.35,2.5.36,3.75a29.2,29.2,0,0,1,0,3.74,32.55,32.55,0,0,1-.23,3.71,68,68,0,0,1-3.08,14.4,121.39,121.39,0,0,1-12.51,26.3A221,221,0,0,1,596,538.65c-3.1,3.7-6.41,7.2-9.6,10.81L576.33,559.8l-1-1L585,548.18c3-3.7,6.2-7.3,9.13-11.07a219.72,219.72,0,0,0,16.41-23.42A126.45,126.45,0,0,0,622.45,488a64.5,64.5,0,0,0,2.84-13.72,29,29,0,0,0,.2-3.48,30.56,30.56,0,0,0-.06-3.45c0-1.16-.23-2.28-.35-3.41l-.32-1.67c-.1-.53-.13-.48-.29-.68a.93.93,0,0,0-1.16-.1l-2.73,2.09L615,468.07c-3.68,3.06-7.31,6.19-10.92,9.34l-1.48,1.27a2.73,2.73,0,0,1-4.24-2.92l.25-.92.49-1.72c.68-2.28,1.27-4.58,1.82-6.89,1.13-4.63,2.06-9.3,2.93-14a263.16,263.16,0,0,0,3.23-28.45,210.72,210.72,0,0,0,.06-28.65Z" transform="translate(30.53)"/><path class="cls-13" d="M307,680.71c34.8,21.24,58.86,8.61,65.89-14.31S405.57,557.12,298.17,571c0,0-131.62-53.07-187.32,25.22-49.13,69.07-4,116.82-79.12,174.09-52.35,39.93-111.7,110.1,6,230.09l127.69-35.17Z" transform="translate(30.53)"/><path class="cls-14" d="M267.3,780.85c2.61,12.16,30.77,43.62,42,55.42,34.07,35.68,41.59,102.62-55.55,123.08L199.13,832Z" transform="translate(30.53)"/><polygon class="cls-5" points="302.68 796.77 291.19 849.66 273.33 931.96 173.71 910.91 197.15 749.51 298.74 795.02 302.68 796.77"/><path class="cls-11" d="M333.45,692.21s28.75,32.23,27.74,40.44-27.74,22.91-27.74,22.91Z" transform="translate(30.53)"/><path class="cls-11" d="M272.15,796.77l-11.49,52.89c-30.65-16.3-53-56.65-53-56.65l60.55,2Z" transform="translate(30.53)"/><path class="cls-5" d="M340.18,765.57c-4,30.64-14.23,54.19-36,56.29-60.23,5.84-146.92-61.63-146.92-61.63l4.67-123.56,65.5-40.42,106,19.68c1.26,14,7.76,56.62,8.82,99.52C342.68,732.74,342.22,750.07,340.18,765.57Z" transform="translate(30.53)"/><path class="cls-13" d="M350.09,636.67,337,646.73c-68.14-53.17-54,23.43-60.35,48s-38.62,18.06-63.81,2.21l-4.5,34.33-75.73,2.39-4.4-96,75.52-59,139.8,27.27Z" transform="translate(30.53)"/><path class="cls-13" d="M252.26,993c37.2-19.95,26.65-72,12.17-89.86s-76-47.74-83.47-103.86c-4.15-31.21,27.41-68.07,27.41-68.07l-64-34.34L78.75,800l49.49,177.13Z" transform="translate(30.53)"/><path class="cls-7" d="M298.61,1278.88l-312.23.22C-27.26,1079.17,22.57,977,65.66,926.73a124,124,0,0,1,109.43-42.17c35.95,4.43,67.15,21.5,98.78,95.94l-147.81,68.73L221,1216.3a109.78,109.78,0,0,0,40,40.55Z" transform="translate(30.53)"/><path class="cls-8" d="M126.06,1049.23s46.46,186,63.68,210.43c17.93,25.48,56.41,19.08,123.49,19.22h0L228.49,1090.1l-102.43-40.87" transform="translate(30.53)"/><path class="cls-7" d="M505.12,1228.34l-13.42,49.41-178.47,1.13H298.61l-37.67-22a109.78,109.78,0,0,1-40-40.55l-94.89-167.07L273.87,980.5c15.89,37.28,31.84,89,48.53,160.7a31.53,31.53,0,0,0,18.07,21.72Z" transform="translate(30.53)"/><path class="cls-5" d="M228.49,710.49c-5.36-29.78-40.69-33.72-46.84-13.6s-4.65,54.67,39.72,52.63Z" transform="translate(30.53)"/><path class="cls-11" d="M214.32,712.82l-5.53-6.31a26.85,26.85,0,0,0-5.72-5c-2-1.13-3.62-1.45-5.48-.46s-3.72,3-5.61,5.14l-1.84-.92a14.46,14.46,0,0,1,5-8.11,8.75,8.75,0,0,1,5.39-1.81,11,11,0,0,1,5.25,1.64,21.29,21.29,0,0,1,6.62,6.76,31.54,31.54,0,0,1,3.77,8.07Z" transform="translate(30.53)"/><path class="cls-15" d="M338.62,775.37c-1.51.32-29.83-7.81-29.83-34.49,0-14.23,12.45-26.37,26.69-26.37a24.09,24.09,0,0,1,6.78.94C342.68,732.74,342.31,758.65,338.62,775.37Z" transform="translate(30.53)"/><polygon class="cls-16" points="883.85 1280.79 512.42 1280.79 582.59 978.59 954.02 978.59 883.85 1280.79"/><path class="cls-1" d="M853.32,1280.79l70.17-302.2c-106.17,245.67-263.92,272.9-441.59,302.2" transform="translate(30.53)"/><ellipse class="cls-12" cx="702.69" cy="1129.69" rx="26.48" ry="22.28" transform="translate(-580.32 1340.85) rotate(-67.25)"/><path class="cls-5" d="M1313.7,1057.29l-1.13,30.71-5.06,137.66v.17a70,70,0,0,1-27.48,52.89H1125.27L802,1279.81c-5.76,0-11.67-13.43-3.13-20.07,18.88-14.76,48.43-31,69-44.14a57.58,57.58,0,0,1,38.23-8.68c22.25,2.85,54.33,14.13,94.25,2.36a161,161,0,0,1,21-4.71l130.1-20,51.2-7.87,1.44-86.73.46-26.25q7.32-2,15-3.48C1246.51,1054.9,1277.19,1053.25,1313.7,1057.29Z" transform="translate(30.53)"/><path class="cls-6" d="M1313.7,1057.29l-1.13,30.71c-18.9-6.64-91.93-27.41-108-24.28h0q7.32-2,15-3.48C1246.51,1054.9,1277.19,1053.25,1313.7,1057.29Z" transform="translate(30.53)"/><path class="cls-9" d="M1307.51,1225.66v.17a70,70,0,0,1-27.48,52.89h-47C1241.24,1233.49,1275.5,1219.43,1307.51,1225.66Z" transform="translate(30.53)"/><path class="cls-11" d="M1183.06,1178.7a67,67,0,0,1,17.25-4.79,69,69,0,0,1,18-.25,70.83,70.83,0,0,1,17.54,4.15,59,59,0,0,1,15.79,8.57l-1.14,1.72a111.17,111.17,0,0,0-16.1-5.89,100.67,100.67,0,0,0-16.69-3.34,91.8,91.8,0,0,0-17-.49,123.75,123.75,0,0,0-17.06,2.28Z" transform="translate(30.53)"/><rect class="cls-17" y="1279.03" width="1338.04" height="41.56"/></g></g></g></svg>