<svg xmlns="http://www.w3.org/2000/svg" viewBox="0 0 45.6 45.6"><defs><style>.cls-1{fill:#0094bc;}.cls-2{fill:#00b6e0;}.cls-3{fill:#007ea0;}</style></defs><g id="Layer_2" data-name="Layer 2"><g id="Layer_7" data-name="Layer 7"><path class="cls-1" d="M45.59,21.9A22.77,22.77,0,0,0,40.16,8c-.4-.47-.82-.92-1.26-1.36a22.73,22.73,0,0,0-8.6-5.39,21.79,21.79,0,0,0-2.9-.8A22.54,22.54,0,0,0,23.7,0H21.9l-.27,0c-.39,0-.78.05-1.16.09-.64.06-1.27.15-1.89.26L18.2.46,17.14.71l-.08,0c-.3.07-.59.16-.88.25l-.46.14-.12,0c-.3.1-.6.2-.89.32l-.49.19a6.36,6.36,0,0,0-.71.31c-.32.14-.65.29-1,.46s-.39.19-.58.29c-.68.37-1.33.77-2,1.2-.27.19-.53.37-.78.57l-.06,0c-.29.21-.57.44-.85.67s-.52.43-.77.66L7.35,6l-.48.45-.19.2c-.24.24-.48.49-.71.74l-.12.13c-.08.09-.17.18-.25.28a5.71,5.71,0,0,0-.39.47c-.24.28-.46.57-.68.86s-.43.59-.64.9l0,0c-.19.29-.38.6-.57.9s-.37.63-.55,1-.34.65-.5,1-.31.67-.46,1-.28.69-.41,1L1,16a.14.14,0,0,1,0,.06,18.26,18.26,0,0,0-.52,2.06,1.18,1.18,0,0,0,0,.2c-.06.3-.12.6-.17.91l0,.22c0,.33-.09.66-.12,1s-.07.77-.09,1.16a2.45,2.45,0,0,0,0,.27c0,.3,0,.6,0,.9s0,.6,0,.9A2.45,2.45,0,0,0,0,24c0,.39.05.78.09,1.16s.08.7.13,1.05l0,.18c0,.32.1.64.17,1,0,0,0,.07,0,.1a19.12,19.12,0,0,0,.5,2c.13.42.26.83.41,1.23s.26.69.4,1l0,.07c.14.32.29.64.44,1s.33.66.5,1,.35.63.54.94l0,0c.19.31.38.61.58.91s.42.6.64.9c.39.52.8,1,1.22,1.5l.12.13A.74.74,0,0,0,6,38.2q.33.36.69.72l.36.36h0c.19.19.39.37.6.55l.65.56c.28.24.57.46.86.68s.59.43.89.64.46.3.7.44.51.32.76.46a8.67,8.67,0,0,0,.79.43l.31.16a6.36,6.36,0,0,0,.59.28c.22.11.43.21.65.3l1.11.44c.39.14.78.27,1.18.39h0l.94.26c.37.1.75.19,1.13.27l.71.13.34,0,.09,0,1.1.13c.32,0,.65.06,1,.08l.45,0c.3,0,.6,0,.9,0s.6,0,.9,0A22.93,22.93,0,0,0,27,45.21a22.4,22.4,0,0,0,2.82-.72,22.75,22.75,0,0,0,8.88-5.37c.44-.44.87-.89,1.28-1.36A22.74,22.74,0,0,0,45.59,23.7c0-.3,0-.6,0-.9S45.6,22.2,45.59,21.9ZM22.94,12.66h.76A33.78,33.78,0,0,0,33,11.1l.55-.18c.28.72.54,1.47.78,2.24A32.16,32.16,0,0,1,35.8,21.9c0,.6,0,1.2,0,1.8a30.7,30.7,0,0,1-.46,4.37,32.9,32.9,0,0,1-2,6.79l-.32-.1A33.43,33.43,0,0,0,23.7,33.2h-.9l-.9,0a32,32,0,0,0-4.67.49,33.31,33.31,0,0,0-4.62,1.18,32.88,32.88,0,0,1-2-6.77,29.89,29.89,0,0,1-.48-4.41c0-.6,0-1.2,0-1.8a31.93,31.93,0,0,1,1.45-8.67c.25-.8.53-1.58.82-2.33a33.76,33.76,0,0,0,4.84,1.25,32,32,0,0,0,4.67.5h1Z"/><path class="cls-2" d="M35.8,21.9c0,.6,0,1.2,0,1.8a30.7,30.7,0,0,1-.46,4.37,32.9,32.9,0,0,1-2,6.79l-.32-.1A33.43,33.43,0,0,0,23.7,33.2h-.9l-.9,0a32,32,0,0,0-4.67.49,33.31,33.31,0,0,0-4.62,1.18,32.88,32.88,0,0,1-2-6.77,29.89,29.89,0,0,1-.48-4.41c0-.6,0-1.2,0-1.8a31.93,31.93,0,0,1,1.45-8.67c.25-.8.53-1.58.82-2.33a33.76,33.76,0,0,0,4.84,1.25,32,32,0,0,0,4.67.5h1.8A33.78,33.78,0,0,0,33,11.1l.55-.18c.28.72.54,1.47.78,2.24A32.16,32.16,0,0,1,35.8,21.9Z"/><path class="cls-2" d="M10.12,21.9c0,.6,0,1.2,0,1.8a29.89,29.89,0,0,0,.48,4.41,32.88,32.88,0,0,0,2,6.77,33.31,33.31,0,0,1,4.62-1.18,32,32,0,0,1,4.67-.49l.9,0V45.6c-.3,0-.6,0-.9,0l-.45,0c-.33,0-.66,0-1-.08l-1.1-.13-.09,0-.35-.06-.7-.12c-.38-.08-.76-.17-1.13-.27l-.94-.26h0c-.4-.12-.79-.25-1.18-.39l-1.11-.44c-.22-.09-.43-.19-.65-.3a6.36,6.36,0,0,1-.59-.28L12.3,43a8.67,8.67,0,0,1-.79-.43c-.25-.14-.51-.29-.76-.46s-.47-.29-.7-.44-.6-.42-.89-.64-.58-.44-.86-.68l-.65-.56c-.21-.18-.41-.36-.6-.55l-.37-.36q-.36-.36-.69-.72a.74.74,0,0,1-.12-.13l-.11-.13h0c-.42-.48-.83-1-1.22-1.5-.22-.3-.43-.59-.64-.9s-.39-.6-.58-.91l0,0c-.19-.31-.37-.62-.54-.94s-.34-.65-.5-1-.3-.64-.44-1l0-.07c-.14-.33-.27-.67-.4-1S1.1,29.82,1,29.4c-.2-.65-.36-1.31-.5-2,0,0,0-.06,0-.1-.07-.32-.12-.64-.17-1l0-.18c0-.35-.1-.7-.13-1.05S.05,24.36,0,24c0-.09,0-.18,0-.27,0-.3,0-.6,0-.9s0-.6,0-.9c0-.09,0-.18,0-.27,0-.39.05-.78.09-1.16s.07-.67.12-1l0-.22c0-.31.11-.61.17-.91a1.18,1.18,0,0,1,0-.2c.14-.7.32-1.38.52-2.06A.14.14,0,0,0,1,16l.36-1c.13-.35.27-.7.41-1s.3-.68.46-1,.33-.66.5-1,.36-.64.55-1,.38-.61.57-.9l0,0c.21-.31.42-.6.64-.9s.44-.58.68-.86.26-.32.4-.47l.24-.28L6,7.42c.23-.25.47-.5.71-.74l.2-.19c.15-.16.31-.31.47-.46l.18-.16c.25-.23.51-.45.77-.66s.56-.46.85-.67l.06,0c.25-.2.51-.38.78-.57.64-.43,1.29-.83,2-1.2.19-.1.38-.2.58-.29s.65-.32,1-.46a6.36,6.36,0,0,1,.71-.31l.49-.19c.29-.12.59-.22.89-.32l.12,0L16.18,1c.29-.09.58-.18.88-.25l.08,0L18.2.46l.37-.07c.62-.12,1.26-.21,1.9-.27.38,0,.77-.07,1.16-.09h.27l.9,0V12.66h-.9a32,32,0,0,1-4.67-.5,33.76,33.76,0,0,1-4.84-1.25c-.29.75-.57,1.53-.82,2.33A31.93,31.93,0,0,0,10.12,21.9Z"/><path class="cls-3" d="M21.9,35c.6,0,1.2,0,1.8,0V45.58c-.3,0-.6,0-.9,0s-.6,0-.9,0Z"/><path class="cls-3" d="M8.33,23.7H0c0-.3,0-.6,0-.9s0-.6,0-.9H8.32C8.3,22.5,8.31,23.1,8.33,23.7Z"/><path class="cls-3" d="M45.6,22.8c0,.3,0,.6,0,.9h-8c0-.6,0-1.2,0-1.8h8C45.6,22.2,45.6,22.5,45.6,22.8Z"/><path class="cls-3" d="M32.84,9.26A39.24,39.24,0,0,0,27.4.46a21.79,21.79,0,0,1,2.9.8,40.57,40.57,0,0,1,4.24,7.39C34,8.86,33.42,9.07,32.84,9.26Z"/><path class="cls-3" d="M32.57,36.51c.59.19,1.16.39,1.71.59a43.94,43.94,0,0,1-4.43,7.39,22.4,22.4,0,0,1-2.82.72A43.91,43.91,0,0,0,32.57,36.51Z"/><path class="cls-3" d="M37.6,21.9c0,.6,0,1.2,0,1.8a32.44,32.44,0,0,1-.49,4.69A34.87,34.87,0,0,1,35,35.45c-.55-.2-1.12-.4-1.7-.59a32.9,32.9,0,0,0,2-6.79,30.7,30.7,0,0,0,.46-4.37c0-.6,0-1.2,0-1.8a32.16,32.16,0,0,0-1.48-8.74c-.24-.77-.5-1.52-.78-2.24.58-.19,1.14-.39,1.69-.61.29.75.56,1.52.81,2.32A34,34,0,0,1,37.6,21.9Z"/><path class="cls-3" d="M13.08,9.24c-.56-.19-1.13-.4-1.69-.62a41,41,0,0,1,4.33-7.5A23.08,23.08,0,0,1,18.58.38,39.71,39.71,0,0,0,13.08,9.24Z"/><path class="cls-3" d="M12.61,34.88c-.56.19-1.13.39-1.69.61a34.81,34.81,0,0,1-2.1-7.1,32.44,32.44,0,0,1-.49-4.69c0-.6,0-1.2,0-1.8a33.29,33.29,0,0,1,1.56-9.27c.25-.81.53-1.6.82-2.35.56.22,1.12.43,1.69.62-.29.75-.57,1.53-.82,2.33a31.93,31.93,0,0,0-1.45,8.67c0,.6,0,1.2,0,1.8a29.89,29.89,0,0,0,.48,4.41A32.88,32.88,0,0,0,12.61,34.88Z"/><path class="cls-3" d="M18.94,45.28a21.62,21.62,0,0,1-2.78-.66,44.21,44.21,0,0,1-4.51-7.49c.56-.22,1.13-.42,1.7-.6A44.36,44.36,0,0,0,18.94,45.28Z"/><path class="cls-3" d="M35.23,10.31c-.55.22-1.11.42-1.69.61L33,11.1a33.78,33.78,0,0,1-9.29,1.55H21.9a32,32,0,0,1-4.67-.5,33.76,33.76,0,0,1-4.84-1.25c-.57-.19-1.13-.4-1.69-.62.22-.57.45-1.12.69-1.66.56.22,1.13.43,1.69.62a31.18,31.18,0,0,0,4.47,1.14,30.45,30.45,0,0,0,4.35.47V0h1.8V10.86a32.16,32.16,0,0,0,8.75-1.48l.39-.12c.58-.19,1.15-.4,1.7-.61C34.78,9.19,35,9.74,35.23,10.31Z"/><path class="cls-3" d="M6.87,6.48a37,37,0,0,0,4.52,2.14c-.24.54-.47,1.09-.69,1.66A38.33,38.33,0,0,1,5.6,7.83C6,7.36,6.43,6.91,6.87,6.48Z"/><path class="cls-3" d="M40.16,8a37.8,37.8,0,0,1-4.93,2.3c-.22-.57-.45-1.12-.69-1.66a38.62,38.62,0,0,0,4.36-2C39.34,7.09,39.76,7.54,40.16,8Z"/><path class="cls-3" d="M35,35.45c-.23.56-.47,1.11-.73,1.65-.55-.2-1.12-.4-1.71-.59l-.18-.06A32.14,32.14,0,0,0,23.7,35h-.9l-.9,0a29.73,29.73,0,0,0-4.4.47,31.15,31.15,0,0,0-4.15,1.05c-.57.18-1.14.38-1.7.6-.26-.55-.5-1.09-.73-1.64.56-.22,1.13-.42,1.69-.61a33.31,33.31,0,0,1,4.62-1.18,32,32,0,0,1,4.67-.49l.9,0h.9A33.43,33.43,0,0,1,33,34.76l.32.1C33.89,35.05,34.46,35.25,35,35.45Z"/><path class="cls-3" d="M10.92,35.49c.23.55.47,1.09.73,1.64A38.21,38.21,0,0,0,7,39.28c-.45-.43-.88-.87-1.29-1.34A39.73,39.73,0,0,1,10.92,35.49Z"/><path class="cls-3" d="M40,37.76c-.41.47-.84.92-1.28,1.36a36.88,36.88,0,0,0-4.45-2c.26-.54.5-1.09.73-1.65A40.3,40.3,0,0,1,40,37.76Z"/><path class="cls-3" d="M30.91,30.21H15a2.69,2.69,0,0,1-2.69-2.7V18.58A2.68,2.68,0,0,1,15,15.89H30.91a2.68,2.68,0,0,1,2.69,2.69v8.93A2.69,2.69,0,0,1,30.91,30.21ZM15,17.89a.69.69,0,0,0-.69.69v8.93a.7.7,0,0,0,.69.7H30.91a.7.7,0,0,0,.69-.7V18.58a.69.69,0,0,0-.69-.69Z"/><polygon class="cls-3" points="22.8 22.89 31.6 17.89 14.33 17.89 22.8 22.89"/></g></g></svg>