<svg xmlns="http://www.w3.org/2000/svg" viewBox="0 0 78.23 59.11"><defs><style>.cls-1{fill:#01435a;}.cls-2{fill:#0094bc;}.cls-3{fill:#00b6e0;}.cls-4{fill:#003644;}.cls-5{fill:#007ea0;}</style></defs><g id="Layer_2" data-name="Layer 2"><g id="Layer_4" data-name="Layer 4"><path class="cls-1" d="M77,52.48c-2.78,1.48-9.24,2.17-16,3.18s-14.2,2.19-21.89,3a72.16,72.16,0,0,1-21.88-.81C10.44,56.52,4,54,1.2,51.88s-.75-3.16,6.19-4c6.79-.8,18.48-1.54,31.72-2.15s24.94.1,31.73,1.64S79.81,51.14,77,52.48Z"/><path class="cls-2" d="M9,52.72a.36.36,0,0,1-.23-.64,47.3,47.3,0,0,1,29.1-9.78,56.92,56.92,0,0,1,31.05,9.76.36.36,0,0,1-.2.66Z"/><path class="cls-3" d="M62.26,54.88H15.61a.53.53,0,0,1-.45-.81c2-3.21,10.25-14.9,22.78-15h.16c14.06,0,22.54,11.78,24.6,15A.53.53,0,0,1,62.26,54.88Z"/><path class="cls-1" d="M39.61,42.3a7.27,7.27,0,0,1-2.83.85,5.89,5.89,0,0,1-3.68-.85c2.33-9-5.66-23.36-5.66-23.36l1.24-.57,1.09-.51C42,30.62,39.61,42.3,39.61,42.3Z"/><path class="cls-4" d="M36.78,43.15a5.89,5.89,0,0,1-3.68-.85c2.33-9-5.66-23.36-5.66-23.36l1.24-.57C35.69,25.89,36.73,42.43,36.78,43.15Z"/><path class="cls-3" d="M29,18.63s-11.34-7.44-16.51,5,1.82,2.86,1.82,2.86,1.28,4.4,2.13,2.61l1.4-2.91s.7,3.12,1.24,2,1.35-3.66,1.35-3.66.55,2.18.95,1.77S23.05,19.48,29,18.63Z"/><path class="cls-2" d="M28.84,18.72s5.35-12.47,16.54-4.93.07,3.39.07,3.39,1.36,4.37-.34,3.36l-2.77-1.66s1.14,3,.06,2.34-3.15-2.3-3.15-2.3.75,2.12.19,2S34.29,16.13,28.84,18.72Z"/><path class="cls-3" d="M28.82,18.88S23.79,6.29,37,3.7s2.45,2.35,2.45,2.35,4.05,2.13,2.14,2.61l-3.14.79s2.92,1.31,1.7,1.61-3.85.6-3.85.6,2,1,1.54,1.28S30.85,13.2,28.82,18.88Z"/><path class="cls-3" d="M28.75,18.46S28.53,4.9,15.32,7.62,14,10.74,14,10.74,11.05,14.27,13,14l3.19-.48s-2.19,2.33-.94,2.14S19,14.69,19,14.69s-1.49,1.68-.93,1.78S24.69,14,28.75,18.46Z"/><path class="cls-2" d="M28.87,18.75s-3-4.07-3.69-7.23S25.83,3.66,27.6.83s1.15,2.45,1.15,2.45,1.9-.84,1.88-.21a8.61,8.61,0,0,1-1.44,2.4s2.29-.35,1.7.23S27.49,14.46,28.87,18.75Z"/><path class="cls-2" d="M51.78,47.48c0,.51-2.43.93-5.43.93s-5.44-.42-5.44-.93,2.44-.93,5.44-.93S51.78,47,51.78,47.48Z"/><path class="cls-1" d="M45.9,47.08l8.82-19.34h.75l-9,19.58a.3.3,0,0,1-.4.14h0A.28.28,0,0,1,45.9,47.08Z"/><path class="cls-5" d="M67.19,36.06a22.51,22.51,0,0,1-6.12-.78,38.35,38.35,0,0,1-4.79-1.52c-1.06-.41-2.19-.9-3.36-1.47-.82-.4-1.66-.84-2.53-1.33-1.38-.77-2.83-1.67-4.31-2.7S43.21,26.18,41.72,25c0,0,9.26-5.71,16.62-2.65h0l.09,0c.18.07.35.15.53.24C66.4,26.24,67.19,36.06,67.19,36.06Z"/><path class="cls-3" d="M58.34,22.3c-3.9,3.94-6.38,6.75-8,8.66-1.38-.77-2.83-1.67-4.31-2.7C46.08,28.26,51.6,22.78,58.34,22.3Z"/><path class="cls-5" d="M67.19,36.06a22.51,22.51,0,0,1-6.12-.78,38.35,38.35,0,0,1-4.79-1.52c-1.06-.41-2.19-.9-3.36-1.47l5.42-10,.09,0c.18.07.35.15.53.24C66.4,26.24,67.19,36.06,67.19,36.06Z"/><path class="cls-3" d="M61.07,35.28a38.35,38.35,0,0,1-4.79-1.52c.57-2.39,1.29-6,2.06-11.46a.28.28,0,0,1,0-.09l.08.13C61.61,27.31,61.21,33.83,61.07,35.28Z"/></g></g></svg>