<svg xmlns="http://www.w3.org/2000/svg" viewBox="0 0 57.86 47.51"><defs><style>.cls-1{fill:#00b6e0;}.cls-2{fill:#0094bc;}.cls-3{fill:#007ea0;}.cls-4{fill:#63c4ee;}.cls-5{fill:#003644;}.cls-6{fill:#01435a;}</style></defs><g id="Layer_2" data-name="Layer 2"><g id="Layer_5" data-name="Layer 5"><polygon class="cls-1" points="14.83 7.24 14.83 45.1 10.69 45.77 9.92 45.9 7.26 46.33 6.54 46.45 6.54 46.45 0 47.51 0 9.66 11.67 7.76 12.38 7.64 14.83 7.24"/><polygon class="cls-1" points="57.86 7.24 57.86 45.1 43.03 47.51 43.03 9.66 43.87 9.52 47.38 8.95 48.29 8.8 50.33 8.47 51.09 8.34 57.86 7.24"/><polygon class="cls-2" points="43.03 9.66 43.03 47.51 41.05 47.34 40.34 47.28 36.12 46.92 35.37 46.86 26.99 46.14 26.25 46.08 14.83 45.1 14.83 7.24 23.54 7.99 24.33 8.06 40.73 9.46 43.03 9.66"/><path class="cls-2" d="M10.21,15c-1.24.18-2.88-.51-4,.37-.6.49-.42,1.27-.29,1.92a14.2,14.2,0,0,1,.29,2.16,12.55,12.55,0,0,1-.55,4.21,8.88,8.88,0,0,1-1.86,3.51,3.36,3.36,0,0,1-1.67,1A10.59,10.59,0,0,1,0,28.24v-.72H.52A4,4,0,0,0,2.9,27a4.6,4.6,0,0,0,1.36-1.73,11.52,11.52,0,0,0,1.22-4.13,11,11,0,0,0,0-2.15c-.06-.73-.24-1.43-.35-2.16a2.23,2.23,0,0,1,.34-1.74,2.34,2.34,0,0,1,1.35-.81c1.3-.31,2.78.39,4-.27a3.34,3.34,0,0,0,1.51-2.78,9.06,9.06,0,0,0-.68-3.51l.71-.12a16.18,16.18,0,0,1,.54,1.89C13.36,11.64,12.75,14.63,10.21,15Z"/><path class="cls-2" d="M31.41,29.82a11.23,11.23,0,0,1-1.15,4.11,44.75,44.75,0,0,0-3,8.56A9.56,9.56,0,0,0,27,46.14l-.73-.06a9.31,9.31,0,0,1,.17-3,38.69,38.69,0,0,1,2.71-8.38,19.63,19.63,0,0,0,1.46-4,5.7,5.7,0,0,0-.79-4,12.35,12.35,0,0,0-2.49-2.95,6.15,6.15,0,0,0-3.5-1.72c-2.37-.17-4.35,1.79-5.12,3.89a10.57,10.57,0,0,0-.48,4.29c.09,1.47.43,2.9.59,4.35a2.51,2.51,0,0,1-1.33,2.78,4.37,4.37,0,0,1-2.65.17,4.88,4.88,0,0,1-.55-.12c-1.25-.3-2.75-.76-3.83.21a4.27,4.27,0,0,0-1.17,3,9,9,0,0,0,1.41,5.17l-.77.13a9.09,9.09,0,0,1-1.25-6.22,4.3,4.3,0,0,1,1.54-2.78A4.4,4.4,0,0,1,14,36.61c.27.06.55.14.85.2a3.39,3.39,0,0,0,2.6-.22c1.21-.78.55-2.62.37-3.76-.43-2.75-.68-5.81.79-8.32A5.79,5.79,0,0,1,24.3,21.4a7,7,0,0,1,3.33,1.7,13.17,13.17,0,0,1,2.63,3A6.7,6.7,0,0,1,31.41,29.82Z"/><path class="cls-3" d="M57.86,30.74v.71h-.6a21.49,21.49,0,0,0-2.77.19,3.27,3.27,0,0,0-2.2,1c-1,1.16-.79,2.89-.75,4.3S51.47,40.4,50,41.15a3.59,3.59,0,0,1-2.29.08,26.64,26.64,0,0,0-2.82-.43c-.57,0-1.19-.09-1.82-.1-2.39,0-5,.44-6.33,2.48a4.65,4.65,0,0,0-.58,3.74l-.75-.06a5.35,5.35,0,0,1,.52-3.72C37.27,40.62,40.35,40,43,40l.55,0a22.72,22.72,0,0,1,2.73.26,14.07,14.07,0,0,0,2.72.4c2-.12,1.82-3.09,1.77-4.48a5.84,5.84,0,0,1,1-4.1c1.1-1.28,3.16-1.28,4.71-1.34C56.94,30.72,57.4,30.73,57.86,30.74Z"/><path class="cls-3" d="M57.86,19.64v.95a6,6,0,0,1-1.27.46c-2.56.6-5.06-.91-6.6-3.31a10.7,10.7,0,0,1-1.55-4.18c-.2-1.37.07-3.32-.82-4.38A1.73,1.73,0,0,0,47.38,9l.91-.15.07.1c.71,1.16.59,2.71.73,4.07A9.72,9.72,0,0,0,50.44,17c1.41,2.34,3.86,3.85,6.28,3.11A5.73,5.73,0,0,0,57.86,19.64Z"/><path class="cls-3" d="M41.05,47.34l-.71-.06c-.16-2.67-1-5.26-1.12-7.93-.12-2.11.22-4.43-.63-6.43a4,4,0,0,0-2.2-2.15A15.25,15.25,0,0,0,33,30.09a11.35,11.35,0,0,1-3.42-1,17.94,17.94,0,0,1-3.07-2c-1-.79-1.92-1.67-2.94-2.43A6.83,6.83,0,0,0,20.12,23c-2.56-.24-3.68,2.39-3.54,4.56.18,2.65,1.58,5.1,1.23,7.8a5,5,0,0,1-1.42,3,6.77,6.77,0,0,1-1.56,1.1c-.37.19-.75.36-1.13.51-2,.81-4.25,1.21-5.78,2.85a3.19,3.19,0,0,0-.83,3c0,.16.1.33.17.5l-.72.12h0a4.1,4.1,0,0,1-.25-1.8A4.26,4.26,0,0,1,7.73,42c1.74-1.58,4-1.94,6.13-2.87a9.8,9.8,0,0,0,1-.49A4.89,4.89,0,0,0,16.52,37a5.73,5.73,0,0,0,.53-3.86c-.41-2.62-1.77-5.23-.93-7.9A4.37,4.37,0,0,1,18,22.74a4.09,4.09,0,0,1,3.55-.13c2.48.95,4.28,3.12,6.4,4.63A12.18,12.18,0,0,0,31.42,29a32.53,32.53,0,0,0,3.68.64,5.77,5.77,0,0,1,3.17,1.48,5.47,5.47,0,0,1,1.38,2.78,18.47,18.47,0,0,1,.25,3.4,28.55,28.55,0,0,0,.24,3.92C40.45,43.29,40.94,45.3,41.05,47.34Z"/><path class="cls-2" d="M51.93,17.23c-.77,1.4-2.27,2.75-4,2.64s-2.69-1.55-3.31-3A16,16,0,0,0,43,13.69a4.83,4.83,0,0,0-1.24-1.18A2.94,2.94,0,0,0,39.34,12a5.12,5.12,0,0,0-2.06,1.57,7.72,7.72,0,0,1-2,1.61,6,6,0,0,1-2.38.66,8,8,0,0,1-4.81-1.25A11.86,11.86,0,0,1,23.54,8l.79.07c1,2.83,2.61,5.49,5.5,6.6a6.54,6.54,0,0,0,4.71.12c1.59-.64,2.37-2.21,3.79-3.08a3.68,3.68,0,0,1,4.38.61l.32.29a6.94,6.94,0,0,1,1.28,1.72c.38.71.63,1.48.95,2.21.6,1.37,1.62,2.94,3.36,2.58s2.87-2.14,3.25-3.76A7.92,7.92,0,0,0,51,9.69c-.21-.4-.46-.8-.7-1.22l.76-.13A14.82,14.82,0,0,1,52.38,11,8.18,8.18,0,0,1,51.93,17.23Z"/><path class="cls-3" d="M2.75,31.32A25.5,25.5,0,0,1,0,35.12V34a21.31,21.31,0,0,0,2.08-2.93,7,7,0,0,0,.84-4.51A10.8,10.8,0,0,0,0,21.13V20.08a17.56,17.56,0,0,1,1.73,2,10.14,10.14,0,0,1,2,4.76A7.56,7.56,0,0,1,2.75,31.32Z"/><path class="cls-4" d="M43,46.13,14.77,43.71,1.38,45.89V10.83l13.5-2.2,28.2,2.42,13.4-2.19V43.92ZM14.75,43.08,43,45.49l12.9-2.1V9.6L43.11,11.68,14.9,9.26,2,11.36V45.15Z"/><path class="cls-5" d="M41.77,11.38a11.38,11.38,0,1,0-22.75,0S18.74,22.82,30.4,34.47C42.06,22.82,41.77,11.38,41.77,11.38Zm-11.3,5.86a4.94,4.94,0,1,1,4.94-4.94A4.94,4.94,0,0,1,30.47,17.24Z"/><path class="cls-6" d="M41.77,11.38A11.37,11.37,0,0,0,30.4,0V7.36h.07a4.94,4.94,0,0,1,0,9.88H30.4V34.47C42.06,22.82,41.77,11.38,41.77,11.38Z"/></g></g></svg>