<svg xmlns="http://www.w3.org/2000/svg" viewBox="0 0 81.06 57.9"><defs><style>.cls-1{fill:#007ea0;}.cls-2{fill:#0094bc;}.cls-3{fill:#00b6e0;}.cls-4{fill:#01435a;}.cls-5{fill:#003644;}.cls-6{fill:#63c4ee;}.cls-7{fill:#2daad6;}.cls-8{fill:#fff;}.cls-9{fill:#ffca00;}</style></defs><g id="Layer_2" data-name="Layer 2"><g id="Layer_6" data-name="Layer 6"><path class="cls-1" d="M81,56.31V54.46H0v2.36H0a1.31,1.31,0,0,0,1.3,1.08H79.74A1.31,1.31,0,0,0,81,56.31Z"/><path class="cls-2" d="M79.74,56.05H1.32A1.32,1.32,0,0,1,.24,54L7,44.33H74.09L80.82,54A1.32,1.32,0,0,1,79.74,56.05Z"/><path class="cls-3" d="M5.39,52.15l3.1-4.45a.47.47,0,0,1,.38-.19H72.2a.44.44,0,0,1,.37.19l3.1,4.45a.46.46,0,0,1-.37.72H5.76A.46.46,0,0,1,5.39,52.15Z"/><rect class="cls-4" x="5.15" width="70.76" height="46.18" rx="2.96"/><path class="cls-5" d="M40.53,0V46.18H8.12a3,3,0,0,1-3-3V3a3,3,0,0,1,3-3Z"/><rect class="cls-6" x="9.24" y="4.09" width="62.58" height="38.01"/><rect class="cls-7" x="40.53" y="4.09" width="31.29" height="38.01"/><rect class="cls-8" x="16.62" y="10.38" width="48.27" height="31.77"/><rect class="cls-4" x="42.98" y="16.04" width="13.2" height="0.53"/><rect class="cls-4" x="42.98" y="17.84" width="17.53" height="0.53"/><rect class="cls-4" x="42.98" y="19.64" width="17.53" height="0.53"/><rect class="cls-4" x="42.98" y="21.44" width="17.53" height="0.53"/><rect class="cls-4" x="42.98" y="23.25" width="17.53" height="0.53"/><rect class="cls-4" x="42.98" y="25.05" width="17.53" height="0.53"/><rect class="cls-4" x="20.83" y="35.32" width="40.69" height="3.65"/><polygon class="cls-9" points="44.6 30.64 45.59 31.16 45.4 30.05 46.21 29.26 45.09 29.1 44.6 28.09 44.1 29.1 42.98 29.26 43.79 30.05 43.6 31.16 44.6 30.64"/><polygon class="cls-9" points="48.3 30.64 49.3 31.16 49.11 30.05 49.91 29.26 48.8 29.1 48.3 28.09 47.8 29.1 46.68 29.26 47.49 30.05 47.3 31.16 48.3 30.64"/><polygon class="cls-9" points="52 30.64 53 31.16 52.81 30.05 53.62 29.26 52.5 29.1 52 28.09 51.5 29.1 50.38 29.26 51.19 30.05 51 31.16 52 30.64"/><polygon class="cls-9" points="55.7 30.64 56.7 31.16 56.51 30.05 57.32 29.26 56.2 29.1 55.7 28.09 55.2 29.1 54.08 29.26 54.89 30.05 54.7 31.16 55.7 30.64"/><polygon class="cls-9" points="59.4 30.64 60.4 31.16 60.21 30.05 61.02 29.26 59.9 29.1 59.4 28.09 58.9 29.1 57.78 29.26 58.59 30.05 58.4 31.16 59.4 30.64"/><path class="cls-4" d="M41.3,29.79a21.1,21.1,0,0,1-4.71.93c-2,.28-4.18.64-6.44.88a21.42,21.42,0,0,1-6.43-.24A13.43,13.43,0,0,1,19,29.61c-.82-.66-.22-.93,1.82-1.18s5.43-.46,9.32-.64a39.14,39.14,0,0,1,9.33.49C41.52,28.71,42.12,29.39,41.3,29.79Z"/><path class="cls-2" d="M21.3,29.85a.1.1,0,0,1-.06-.18,13.84,13.84,0,0,1,8.55-2.88,16.75,16.75,0,0,1,9.13,2.87.1.1,0,0,1-.06.19Z"/><path class="cls-3" d="M37,30.49H23.24a.16.16,0,0,1-.13-.24c.6-.94,3-4.38,6.7-4.41h.05c4.13,0,6.62,3.46,7.23,4.41A.16.16,0,0,1,37,30.49Z"/><path class="cls-4" d="M30.3,26.79a2.11,2.11,0,0,1-.83.25,1.77,1.77,0,0,1-1.09-.25c.69-2.64-1.66-6.87-1.66-6.87l.37-.16.32-.15C31,23.36,30.3,26.79,30.3,26.79Z"/><path class="cls-5" d="M29.47,27a1.77,1.77,0,0,1-1.09-.25c.69-2.64-1.66-6.87-1.66-6.87l.37-.16C29.15,22,29.45,26.83,29.47,27Z"/><path class="cls-3" d="M27.19,19.83s-3.34-2.18-4.86,1.48.54.84.54.84.37,1.3.62.77l.42-.86s.2.92.36.59.4-1.08.4-1.08.16.64.28.52S25.43,20.08,27.19,19.83Z"/><path class="cls-2" d="M27.13,19.86s1.58-3.67,4.87-1.45,0,1,0,1,.4,1.28-.1,1l-.82-.48s.34.87,0,.68-.93-.67-.93-.67.22.62.06.58S28.74,19.1,27.13,19.86Z"/><path class="cls-3" d="M27.13,19.91s-1.48-3.7,2.41-4.47.72.7.72.7,1.19.62.63.76l-.92.24s.86.38.5.47-1.14.17-1.14.17.6.29.46.38S27.72,18.24,27.13,19.91Z"/><path class="cls-3" d="M27.11,19.78s-.07-4-3.95-3.18-.4.91-.4.91-.86,1-.28.95l.94-.14s-.65.69-.28.63a10.54,10.54,0,0,0,1.11-.27s-.44.49-.27.52S25.91,18.47,27.11,19.78Z"/><path class="cls-2" d="M27.14,19.87a7,7,0,0,1-1.08-2.13,4.9,4.9,0,0,1,.71-3.14c.52-.83.34.72.34.72s.55-.25.55-.06a2.69,2.69,0,0,1-.42.71s.67-.11.5.06A6.69,6.69,0,0,0,27.14,19.87Z"/><path class="cls-2" d="M33.88,28.31c0,.15-.72.28-1.6.28s-1.6-.13-1.6-.28.72-.27,1.6-.27S33.88,28.16,33.88,28.31Z"/><path class="cls-4" d="M32.15,28.2l2.59-5.69H35L32.3,28.27a.08.08,0,0,1-.11,0h0A.08.08,0,0,1,32.15,28.2Z"/><path class="cls-1" d="M38.41,25a6.8,6.8,0,0,1-1.8-.23,10.2,10.2,0,0,1-1.41-.45c-.31-.12-.64-.26-1-.43l-.74-.39a14.52,14.52,0,0,1-1.27-.8c-.42-.28-.84-.61-1.28-1,0,0,2.72-1.68,4.88-.78h0L36,21C38.18,22.07,38.41,25,38.41,25Z"/><path class="cls-3" d="M35.81,20.91c-1.15,1.16-1.88,2-2.34,2.55a14.52,14.52,0,0,1-1.27-.8A6.54,6.54,0,0,1,35.81,20.91Z"/><path class="cls-1" d="M38.41,25a6.8,6.8,0,0,1-1.8-.23,10.2,10.2,0,0,1-1.41-.45c-.31-.12-.64-.26-1-.43l1.6-2.94h0L36,21C38.18,22.07,38.41,25,38.41,25Z"/><path class="cls-3" d="M36.61,24.73a10.2,10.2,0,0,1-1.41-.45c.17-.7.38-1.77.6-3.37v0l0,0A6.5,6.5,0,0,1,36.61,24.73Z"/></g></g></svg>