<svg xmlns="http://www.w3.org/2000/svg" viewBox="0 0 43.66 29.66"><defs><style>.cls-1{fill:#0095ad;}.cls-2{fill:#003644;}.cls-3{fill:#01435a;}.cls-4{fill:#00b6e0;}</style></defs><g id="Layer_2" data-name="Layer 2"><g id="Layer_3" data-name="Layer 3"><polygon class="cls-1" points="41.89 15.79 42.93 14.26 41.13 14.08 42.16 12.55 40.37 12.37 41.4 10.84 39.6 10.66 40.64 9.13 40.45 9.11 40.59 9.05 38.81 8.88 39.85 7.34 38.05 7.17 39.09 5.64 37.29 5.46 38.33 3.93 36.53 3.75 37.57 2.22 37.38 2.2 26.61 6.99 29.69 13.9 32.77 20.81 43.66 15.96 41.89 15.79"/><rect class="cls-2" x="8.89" y="10.76" width="21.75" height="15.13" transform="translate(-5.75 9.62) rotate(-24)"/><path class="cls-3" d="M30.14,9.63a.21.21,0,0,1-.2-.14.22.22,0,0,1,.11-.29l2.88-1.29a.23.23,0,0,1,.3.12.22.22,0,0,1-.12.29L30.23,9.61Z"/><path class="cls-3" d="M30.8,11.12a.22.22,0,0,1-.2-.14.22.22,0,0,1,.11-.29l5.1-2.27a.22.22,0,0,1,.29.11.23.23,0,0,1-.11.3L30.9,11.1Z"/><path class="cls-3" d="M31.47,12.6a.22.22,0,0,1-.21-.13.23.23,0,0,1,.12-.3l5.09-2.26a.23.23,0,0,1,.3.11.23.23,0,0,1-.12.3l-5.09,2.27Z"/><path class="cls-3" d="M32.13,14.09a.22.22,0,0,1-.2-.13.23.23,0,0,1,.11-.3l5.09-2.26a.23.23,0,0,1,.3.11.23.23,0,0,1-.11.3l-5.1,2.26A.15.15,0,0,1,32.13,14.09Z"/><path class="cls-3" d="M32.79,15.58a.23.23,0,0,1-.09-.43l5.1-2.26a.21.21,0,0,1,.29.11.23.23,0,0,1-.11.3l-5.09,2.26A.18.18,0,0,1,32.79,15.58Z"/><path class="cls-3" d="M33.46,17.07a.23.23,0,0,1-.21-.13.23.23,0,0,1,.12-.3l5.09-2.27a.23.23,0,0,1,.3.12.22.22,0,0,1-.12.29l-5.09,2.27A.15.15,0,0,1,33.46,17.07Z"/><path class="cls-4" d="M20.31,14a.22.22,0,0,1-.2-.13.23.23,0,0,1,.11-.3L23.72,12a.23.23,0,0,1,.3.11.23.23,0,0,1-.12.3L20.4,14A.15.15,0,0,1,20.31,14Z"/><path class="cls-4" d="M21,15.49a.23.23,0,0,1-.1-.43l6.19-2.75a.23.23,0,0,1,.3.11.23.23,0,0,1-.11.3l-6.19,2.75A.15.15,0,0,1,21,15.49Z"/><path class="cls-4" d="M21.58,16.85a.23.23,0,0,1-.21-.13.22.22,0,0,1,.12-.3L25,14.86a.22.22,0,0,1,.29.11.23.23,0,0,1-.11.3l-3.5,1.56Z"/><path class="cls-4" d="M22.24,18.34a.21.21,0,0,1-.2-.14.22.22,0,0,1,.11-.29l6.19-2.76a.23.23,0,0,1,.3.12.22.22,0,0,1-.12.29l-6.19,2.76Z"/><path class="cls-4" d="M15.64,15.55a4.61,4.61,0,0,1,1.88,8.82,4.47,4.47,0,0,1-1.87.4A4.61,4.61,0,0,1,13.77,16a4.44,4.44,0,0,1,1.87-.4Zm0-.45v0a4.92,4.92,0,0,0-2.06.44,5.06,5.06,0,0,0,2.07,9.68,4.85,4.85,0,0,0,2-.44,5.06,5.06,0,0,0,2.57-6.68,5.08,5.08,0,0,0-4.63-3Z"/><rect class="cls-4" x="15.42" y="15.26" width="0.45" height="9.8" transform="translate(-6.85 8.11) rotate(-24.01)"/><rect class="cls-4" x="10.74" y="19.94" width="9.8" height="0.45" transform="matrix(0.91, -0.41, 0.41, 0.91, -6.85, 8.1)"/><path class="cls-4" d="M16.81,25.1a7.17,7.17,0,0,1-4.43-5.75,8.05,8.05,0,0,1,.35-3.43l.42.16L12.94,16l.21.08a7.72,7.72,0,0,0-.33,3.23A6.75,6.75,0,0,0,17,24.7Z"/><path class="cls-4" d="M18.59,24.31l-.43-.13A6.74,6.74,0,0,0,17,17.46a7.64,7.64,0,0,0-2.62-1.91l.16-.42a8,8,0,0,1,2.79,2A7.21,7.21,0,0,1,18.59,24.31Z"/><path class="cls-4" d="M11.33,18.88H11l0-.45a7.7,7.7,0,0,0,6.47-2.88l.37.27A8.1,8.1,0,0,1,11.33,18.88Z"/><path class="cls-4" d="M13.84,24.82l-.36-.26c2.5-3.43,6.83-3.07,6.88-3.07l0,.45A7.75,7.75,0,0,0,13.84,24.82Z"/><polygon class="cls-4" points="35.14 13.59 36.18 12.05 34.38 11.88 35.42 10.35 33.62 10.17 34.66 8.64 32.85 8.46 33.89 6.93 33.71 6.91 33.84 6.85 32.06 6.68 33.1 5.14 31.3 4.97 32.34 3.44 30.54 3.26 31.58 1.73 29.78 1.55 30.82 0.02 30.63 0 19.86 4.79 22.94 11.7 26.02 18.61 36.92 13.76 35.14 13.59"/><rect class="cls-3" x="2.14" y="8.56" width="21.75" height="15.13" transform="translate(-5.44 6.69) rotate(-24)"/><path class="cls-3" d="M23.39,7.43a.21.21,0,0,1-.2-.14A.22.22,0,0,1,23.3,7l2.88-1.29a.23.23,0,0,1,.3.12.22.22,0,0,1-.12.29L23.48,7.41Z"/><path class="cls-3" d="M24.06,8.92a.23.23,0,0,1-.21-.14A.22.22,0,0,1,24,8.49l5.1-2.27a.22.22,0,0,1,.29.11.23.23,0,0,1-.11.3L24.15,8.9Z"/><path class="cls-3" d="M24.72,10.4a.22.22,0,0,1-.09-.42l5.09-2.27a.23.23,0,0,1,.3.11.23.23,0,0,1-.12.3l-5.09,2.27Z"/><path class="cls-3" d="M25.38,11.89a.22.22,0,0,1-.2-.13.23.23,0,0,1,.11-.3L30.38,9.2a.23.23,0,0,1,.3.11.23.23,0,0,1-.11.3l-5.1,2.26A.15.15,0,0,1,25.38,11.89Z"/><path class="cls-3" d="M26.05,13.38A.23.23,0,0,1,26,13l5.1-2.26a.22.22,0,0,1,.29.11.23.23,0,0,1-.11.3l-5.09,2.26A.15.15,0,0,1,26.05,13.38Z"/><path class="cls-3" d="M26.71,14.87a.23.23,0,0,1-.21-.13.23.23,0,0,1,.12-.3l5.09-2.27a.23.23,0,0,1,.3.12.22.22,0,0,1-.12.29L26.8,14.85A.15.15,0,0,1,26.71,14.87Z"/><path class="cls-4" d="M13.56,11.8a.22.22,0,0,1-.2-.13.23.23,0,0,1,.11-.3L17,9.82a.23.23,0,0,1,.3.11.23.23,0,0,1-.12.3l-3.5,1.55A.15.15,0,0,1,13.56,11.8Z"/><path class="cls-4" d="M14.23,13.29a.23.23,0,0,1-.1-.43l6.19-2.75a.23.23,0,0,1,.3.11.23.23,0,0,1-.11.3l-6.19,2.75A.15.15,0,0,1,14.23,13.29Z"/><path class="cls-4" d="M14.83,14.65a.22.22,0,0,1-.09-.43l3.5-1.56a.22.22,0,0,1,.29.11.23.23,0,0,1-.11.3l-3.5,1.56Z"/><path class="cls-4" d="M15.49,16.14a.22.22,0,0,1-.2-.14.22.22,0,0,1,.11-.29L21.59,13a.22.22,0,0,1,.3.12.22.22,0,0,1-.12.29l-6.19,2.76Z"/><path class="cls-4" d="M8.89,13.35a4.61,4.61,0,0,1,1.88,8.82,4.47,4.47,0,0,1-1.87.4A4.61,4.61,0,0,1,7,13.75a4.44,4.44,0,0,1,1.87-.4Zm0-.45v0a4.92,4.92,0,0,0-2.06.44A5.06,5.06,0,0,0,8.9,23a4.85,4.85,0,0,0,2-.44,5,5,0,0,0,2.67-2.81A5.06,5.06,0,0,0,8.89,12.9Z"/><rect class="cls-4" x="8.67" y="13.06" width="0.45" height="9.8" transform="translate(-6.54 5.17) rotate(-24.01)"/><rect class="cls-4" x="3.99" y="17.74" width="9.8" height="0.45" transform="matrix(0.91, -0.41, 0.41, 0.91, -6.54, 5.17)"/><path class="cls-4" d="M10.06,22.9a7.17,7.17,0,0,1-4.43-5.75A7.79,7.79,0,0,1,6,13.72l.42.16L6.2,13.8l.21.08a7.44,7.44,0,0,0-.34,3.23,6.77,6.77,0,0,0,4.19,5.39Z"/><path class="cls-4" d="M11.84,22.11,11.41,22a6.72,6.72,0,0,0-1.21-6.72,7.64,7.64,0,0,0-2.62-1.91l.17-.42a8.17,8.17,0,0,1,2.79,2A7.21,7.21,0,0,1,11.84,22.11Z"/><path class="cls-4" d="M4.58,16.68H4.2l0-.45a7.73,7.73,0,0,0,6.48-2.88l.36.27A8.1,8.1,0,0,1,4.58,16.68Z"/><path class="cls-4" d="M7.09,22.62l-.36-.26a8.23,8.23,0,0,1,6.88-3.07l0,.45A7.75,7.75,0,0,0,7.09,22.62Z"/></g></g></svg>