<svg xmlns="http://www.w3.org/2000/svg" viewBox="0 0 79.1 70.4"><defs><style>.cls-1{fill:#01435a;}.cls-2{fill:#00b6e0;}.cls-3{fill:#007ea0;}.cls-4{fill:#fff;}.cls-5{fill:#231f20;}.cls-6{fill:#0094bc;}.cls-7{fill:#383838;}.cls-8{fill:#262626;}</style></defs><g id="Layer_2" data-name="Layer 2"><g id="Layer_2-2" data-name="Layer 2"><path class="cls-1" d="M77,63.76c-2.78,1.48-9.24,2.17-16,3.19s-14.2,2.19-21.89,3a72.49,72.49,0,0,1-21.88-.8c-6.79-1.33-13.25-3.87-16-6s-.75-3.16,6.19-4c6.79-.8,18.48-1.54,31.72-2.15s24.94.11,31.73,1.64S79.81,62.42,77,63.76Z"/><polygon class="cls-2" points="61.92 13.77 61.92 22.03 47.64 22.03 43.26 17.9 47.64 13.77 61.92 13.77"/><polygon class="cls-3" points="61.92 17.9 61.92 22.03 47.64 22.03 43.26 17.9 61.92 17.9"/><path class="cls-4" d="M61.33,60.33v0Z"/><path class="cls-5" d="M61.33,61.22a.9.9,0,0,1-.9-.89V.9a.9.9,0,0,1,1.8,0V60.33A.89.89,0,0,1,61.33,61.22Z"/><polygon class="cls-2" points="79.1 6.68 74.72 10.81 60.45 10.81 60.45 2.55 74.72 2.55 79.1 6.68"/><polygon class="cls-6" points="79.1 6.68 74.72 10.81 60.45 10.81 60.45 6.68 79.1 6.68"/><path class="cls-6" d="M57.76,55V62a2.12,2.12,0,0,1-2.12,2.12H9.09A2.12,2.12,0,0,1,7,62V55Z"/><path class="cls-6" d="M32.37,55v9.06H9.09A2.12,2.12,0,0,1,7,62V55Z"/><path class="cls-2" d="M57.76,51.21v5.51H7V51.21a2.12,2.12,0,0,1,2.12-2.12H55.64A2.12,2.12,0,0,1,57.76,51.21Z"/><path class="cls-2" d="M32.37,49.09v7.63H7V51.21a2.12,2.12,0,0,1,2.12-2.12Z"/><rect class="cls-1" x="26.5" y="57.32" width="1.77" height="1.08"/><rect class="cls-1" x="36.58" y="57.32" width="1.77" height="1.08"/><path class="cls-1" d="M36,61.89H28.86a1.77,1.77,0,0,1-1.77-1.77V57.85h.63v2.27a1.14,1.14,0,0,0,1.14,1.14H36a1.14,1.14,0,0,0,1.14-1.14V57.85h.63v2.27A1.77,1.77,0,0,1,36,61.89Z"/><path class="cls-1" d="M16.85,58.94h0a.81.81,0,0,1-.81-.81V54.62a.81.81,0,0,1,.81-.81h0a.81.81,0,0,1,.81.81v3.51A.81.81,0,0,1,16.85,58.94Z"/><path class="cls-1" d="M47.75,58.94h0a.81.81,0,0,1-.81-.81V54.62a.81.81,0,0,1,.81-.81h0a.81.81,0,0,1,.81.81v3.51A.81.81,0,0,1,47.75,58.94Z"/><path class="cls-6" d="M56.18,40.83V47.5a1.76,1.76,0,0,1-1.76,1.76H15.71A1.76,1.76,0,0,1,14,47.5V40.83Z"/><path class="cls-6" d="M35.06,40.83v8.43H15.71A1.76,1.76,0,0,1,14,47.5V40.83Z"/><path class="cls-2" d="M57.76,38.42v1.89a.83.83,0,0,1-.83.83H12.37V38.43a1.89,1.89,0,0,1,1.89-1.9H55.87A1.89,1.89,0,0,1,57.76,38.42Z"/><path class="cls-2" d="M35.06,36.53v4.61H13.19a.83.83,0,0,1-.82-.83V38.43a1.89,1.89,0,0,1,1.89-1.9Z"/><rect class="cls-3" x="28.26" y="43.2" width="2.06" height="2.56"/><rect class="cls-3" x="39.99" y="43.2" width="2.06" height="2.56"/><rect class="cls-1" x="17.62" y="45.57" width="5.78" height="1.85" transform="translate(67.01 25.98) rotate(90)"/><polygon class="cls-3" points="19.59 44.38 19.59 36.53 21.44 36.53 21.44 44.38 20.51 45.46 19.59 44.38"/><rect class="cls-7" x="18.84" y="39.74" width="3.28" height="2.48" rx="0.34" transform="translate(61.46 20.51) rotate(90)"/><rect class="cls-1" x="47.15" y="45.57" width="5.78" height="1.85" transform="translate(96.53 -3.55) rotate(90)"/><polygon class="cls-3" points="49.12 44.38 49.12 36.53 50.97 36.53 50.97 44.38 50.04 45.46 49.12 44.38"/><rect class="cls-8" x="48.36" y="39.74" width="3.28" height="2.48" rx="0.34" transform="translate(90.98 -9.02) rotate(90)"/><rect class="cls-1" x="29.11" y="43.7" width="12" height="1.48"/></g></g></svg>